<?xml version="1.0" encoding="UTF-8"?>
<!DOCTYPE svg PUBLIC "-//W3C//DTD SVG 1.1//EN" "http://www.w3.org/Graphics/SVG/1.1/DTD/svg11.dtd">
<svg xmlns="http://www.w3.org/2000/svg" version="1.1" width="500px" height="500px" style="shape-rendering:geometricPrecision; text-rendering:geometricPrecision; image-rendering:optimizeQuality; fill-rule:evenodd; clip-rule:evenodd" xmlns:xlink="http://www.w3.org/1999/xlink">
<g><path style="opacity:1" fill="#25b2bc" d="M 375.5,86.5 C 376.552,86.3505 377.552,86.5172 378.5,87C 392.042,106.577 404.709,126.744 416.5,147.5C 409.4,152.135 401.9,156.135 394,159.5C 382.556,137.577 369.722,116.577 355.5,96.5C 362.227,93.1363 368.894,89.8029 375.5,86.5 Z"/></g>
<g><path style="opacity:1" fill="#2da6bd" d="M 324.5,106.5 C 326.017,106.511 327.184,107.177 328,108.5C 340.829,127.848 352.663,147.848 363.5,168.5C 356.4,173.135 348.9,177.135 341,180.5C 330.266,158.016 317.766,136.683 303.5,116.5C 310.593,113.148 317.593,109.814 324.5,106.5 Z"/></g>
<g><path style="opacity:1" fill="#3693c1" d="M 224.5,134.5 C 224.829,137.032 225.995,138.032 228,137.5C 229.487,138.253 229.654,139.086 228.5,140C 229.469,141.758 230.636,142.258 232,141.5C 233.487,142.253 233.654,143.086 232.5,144C 233.469,145.758 234.636,146.258 236,145.5C 237.487,146.253 237.654,147.086 236.5,148C 237.469,149.758 238.636,150.258 240,149.5C 241.487,150.253 241.654,151.086 240.5,152C 241.469,153.758 242.636,154.258 244,153.5C 245.487,154.253 245.654,155.086 244.5,156C 245.469,157.758 246.636,158.258 248,157.5C 249.487,158.253 249.654,159.086 248.5,160C 249.469,161.758 250.636,162.258 252,161.5C 253.487,162.253 253.654,163.086 252.5,164C 253.469,165.758 254.636,166.258 256,165.5C 257.487,166.253 257.654,167.086 256.5,168C 257.469,169.758 258.636,170.258 260,169.5C 261.487,170.253 261.654,171.086 260.5,172C 261.469,173.758 262.636,174.258 264,173.5C 265.487,174.253 265.654,175.086 264.5,176C 265.469,177.758 266.636,178.258 268,177.5C 269.487,178.253 269.654,179.086 268.5,180C 269.469,181.758 270.636,182.258 272,181.5C 273.487,182.253 273.654,183.086 272.5,184C 273.469,185.758 274.636,186.258 276,185.5C 277.487,186.253 277.654,187.086 276.5,188C 277.469,189.758 278.636,190.258 280,189.5C 281.487,190.253 281.654,191.086 280.5,192C 281.469,193.758 282.636,194.258 284,193.5C 285.487,194.253 285.654,195.086 284.5,196C 285.469,197.758 286.636,198.258 288,197.5C 289.487,198.253 289.654,199.086 288.5,200C 289.469,201.758 290.636,202.258 292,201.5C 293.487,202.253 293.654,203.086 292.5,204C 293.469,205.758 294.636,206.258 296,205.5C 297.487,206.253 297.654,207.086 296.5,208C 297.469,209.758 298.636,210.258 300,209.5C 301.487,210.253 301.654,211.086 300.5,212C 301.469,213.758 302.636,214.258 304,213.5C 305.487,214.253 305.654,215.086 304.5,216C 305.469,217.758 306.636,218.258 308,217.5C 309.487,218.253 309.654,219.086 308.5,220C 309.469,221.758 310.636,222.258 312,221.5C 313.487,222.253 313.654,223.086 312.5,224C 313.469,225.758 314.636,226.258 316,225.5C 317.487,226.253 317.654,227.086 316.5,228C 317.469,229.758 318.636,230.258 320,229.5C 321.487,230.253 321.654,231.086 320.5,232C 321.469,233.758 322.636,234.258 324,233.5C 325.487,234.253 325.654,235.086 324.5,236C 325.469,237.758 326.636,238.258 328,237.5C 329.487,238.253 329.654,239.086 328.5,240C 329.469,241.758 330.636,242.258 332,241.5C 333.487,242.253 333.654,243.086 332.5,244C 333.469,245.758 334.636,246.258 336,245.5C 337.487,246.253 337.654,247.086 336.5,248C 337.469,249.758 338.636,250.258 340,249.5C 341.487,250.253 341.654,251.086 340.5,252C 341.469,253.758 342.636,254.258 344,253.5C 345.487,254.253 345.654,255.086 344.5,256C 345.469,257.758 346.636,258.258 348,257.5C 349.487,258.253 349.654,259.086 348.5,260C 349.469,261.758 350.636,262.258 352,261.5C 353.487,262.253 353.654,263.086 352.5,264C 353.469,265.758 354.636,266.258 356,265.5C 357.487,266.253 357.654,267.086 356.5,268C 357.469,269.758 358.636,270.258 360,269.5C 361.487,270.253 361.654,271.086 360.5,272C 361.469,273.758 362.636,274.258 364,273.5C 365.487,274.253 365.654,275.086 364.5,276C 365.469,277.758 366.636,278.258 368,277.5C 369.487,278.253 369.654,279.086 368.5,280C 369.469,281.758 370.636,282.258 372,281.5C 373.487,282.253 373.654,283.086 372.5,284C 373.469,285.758 374.636,286.258 376,285.5C 377.487,286.253 377.654,287.086 376.5,288C 377.469,289.758 378.636,290.258 380,289.5C 382.106,292.118 384.606,294.118 387.5,295.5C 393.514,303.179 400.18,310.179 407.5,316.5C 426.632,336.132 445.965,355.632 465.5,375C 465.167,375.333 464.833,375.667 464.5,376C 465.381,376.708 466.047,377.542 466.5,378.5C 462.526,382.138 458.526,385.805 454.5,389.5C 369.833,304.5 285.167,219.5 200.5,134.5C 203.598,132.513 207.098,131.513 211,131.5C 215.638,131.952 220.138,132.952 224.5,134.5 Z"/></g>
<g><path style="opacity:1" fill="#3895bf" d="M 224.5,134.5 C 230.474,137.488 236.14,140.988 241.5,145C 266.604,166.769 290.437,189.936 313,214.5C 338.039,241.37 362.873,268.37 387.5,295.5C 384.606,294.118 382.106,292.118 380,289.5C 378.636,290.258 377.469,289.758 376.5,288C 377.654,287.086 377.487,286.253 376,285.5C 374.636,286.258 373.469,285.758 372.5,284C 373.654,283.086 373.487,282.253 372,281.5C 370.636,282.258 369.469,281.758 368.5,280C 369.654,279.086 369.487,278.253 368,277.5C 366.636,278.258 365.469,277.758 364.5,276C 365.654,275.086 365.487,274.253 364,273.5C 362.636,274.258 361.469,273.758 360.5,272C 361.654,271.086 361.487,270.253 360,269.5C 358.636,270.258 357.469,269.758 356.5,268C 357.654,267.086 357.487,266.253 356,265.5C 354.636,266.258 353.469,265.758 352.5,264C 353.654,263.086 353.487,262.253 352,261.5C 350.636,262.258 349.469,261.758 348.5,260C 349.654,259.086 349.487,258.253 348,257.5C 346.636,258.258 345.469,257.758 344.5,256C 345.654,255.086 345.487,254.253 344,253.5C 342.636,254.258 341.469,253.758 340.5,252C 341.654,251.086 341.487,250.253 340,249.5C 338.636,250.258 337.469,249.758 336.5,248C 337.654,247.086 337.487,246.253 336,245.5C 334.636,246.258 333.469,245.758 332.5,244C 333.654,243.086 333.487,242.253 332,241.5C 330.636,242.258 329.469,241.758 328.5,240C 329.654,239.086 329.487,238.253 328,237.5C 326.636,238.258 325.469,237.758 324.5,236C 325.654,235.086 325.487,234.253 324,233.5C 322.636,234.258 321.469,233.758 320.5,232C 321.654,231.086 321.487,230.253 320,229.5C 318.636,230.258 317.469,229.758 316.5,228C 317.654,227.086 317.487,226.253 316,225.5C 314.636,226.258 313.469,225.758 312.5,224C 313.654,223.086 313.487,222.253 312,221.5C 310.636,222.258 309.469,221.758 308.5,220C 309.654,219.086 309.487,218.253 308,217.5C 306.636,218.258 305.469,217.758 304.5,216C 305.654,215.086 305.487,214.253 304,213.5C 302.636,214.258 301.469,213.758 300.5,212C 301.654,211.086 301.487,210.253 300,209.5C 298.636,210.258 297.469,209.758 296.5,208C 297.654,207.086 297.487,206.253 296,205.5C 294.636,206.258 293.469,205.758 292.5,204C 293.654,203.086 293.487,202.253 292,201.5C 290.636,202.258 289.469,201.758 288.5,200C 289.654,199.086 289.487,198.253 288,197.5C 286.636,198.258 285.469,197.758 284.5,196C 285.654,195.086 285.487,194.253 284,193.5C 282.636,194.258 281.469,193.758 280.5,192C 281.654,191.086 281.487,190.253 280,189.5C 278.636,190.258 277.469,189.758 276.5,188C 277.654,187.086 277.487,186.253 276,185.5C 274.636,186.258 273.469,185.758 272.5,184C 273.654,183.086 273.487,182.253 272,181.5C 270.636,182.258 269.469,181.758 268.5,180C 269.654,179.086 269.487,178.253 268,177.5C 266.636,178.258 265.469,177.758 264.5,176C 265.654,175.086 265.487,174.253 264,173.5C 262.636,174.258 261.469,173.758 260.5,172C 261.654,171.086 261.487,170.253 260,169.5C 258.636,170.258 257.469,169.758 256.5,168C 257.654,167.086 257.487,166.253 256,165.5C 254.636,166.258 253.469,165.758 252.5,164C 253.654,163.086 253.487,162.253 252,161.5C 250.636,162.258 249.469,161.758 248.5,160C 249.654,159.086 249.487,158.253 248,157.5C 246.636,158.258 245.469,157.758 244.5,156C 245.654,155.086 245.487,154.253 244,153.5C 242.636,154.258 241.469,153.758 240.5,152C 241.654,151.086 241.487,150.253 240,149.5C 238.636,150.258 237.469,149.758 236.5,148C 237.654,147.086 237.487,146.253 236,145.5C 234.636,146.258 233.469,145.758 232.5,144C 233.654,143.086 233.487,142.253 232,141.5C 230.636,142.258 229.469,141.758 228.5,140C 229.654,139.086 229.487,138.253 228,137.5C 225.995,138.032 224.829,137.032 224.5,134.5 Z"/></g>
<g><path style="opacity:1" fill="#3c8cc1" d="M 190.5,140.5 C 200.246,148.742 209.579,157.575 218.5,167C 217.619,167.708 216.953,168.542 216.5,169.5C 208.316,168.424 201.982,171.424 197.5,178.5C 190.891,170.554 183.891,162.887 176.5,155.5C 180.461,149.871 185.127,144.871 190.5,140.5 Z"/></g>
<g><path style="opacity:1" fill="#4186c1" d="M 176.5,155.5 C 183.891,162.887 190.891,170.554 197.5,178.5C 192.49,184.54 187.49,190.54 182.5,196.5C 182.19,195.262 181.69,195.262 181,196.5C 173.965,189.297 166.798,182.297 159.5,175.5C 164.702,168.422 170.369,161.755 176.5,155.5 Z"/></g>
<g><path style="opacity:1" fill="#4481c2" d="M 159.5,175.5 C 166.798,182.297 173.965,189.297 181,196.5C 181.69,195.262 182.19,195.262 182.5,196.5C 179.397,201.052 176.064,205.386 172.5,209.5C 171.402,208.603 171.402,207.77 172.5,207C 166.167,200.667 159.833,194.333 153.5,188C 151.803,187.616 150.137,187.782 148.5,188.5C 151.939,183.941 155.606,179.608 159.5,175.5 Z"/></g>
<g><path style="opacity:1" fill="#467ec2" d="M 172.5,209.5 C 169.848,213.482 166.848,217.149 163.5,220.5C 157.182,212.501 149.849,204.834 141.5,197.5C 143.451,194.214 145.785,191.214 148.5,188.5C 150.137,187.782 151.803,187.616 153.5,188C 159.833,194.333 166.167,200.667 172.5,207C 171.402,207.77 171.402,208.603 172.5,209.5 Z"/></g>
<g><path style="opacity:1" fill="#4a79c3" d="M 141.5,197.5 C 149.849,204.834 157.182,212.501 163.5,220.5C 159.185,226.81 154.518,232.81 149.5,238.5C 148.603,237.402 147.77,237.402 147,238.5C 145.242,237.531 144.742,236.364 145.5,235C 144.747,233.513 143.914,233.346 143,234.5C 141.242,233.531 140.742,232.364 141.5,231C 140.747,229.513 139.914,229.346 139,230.5C 137.242,229.531 136.742,228.364 137.5,227C 136.747,225.513 135.914,225.346 135,226.5C 133.242,225.531 132.742,224.364 133.5,223C 131.56,223.178 129.893,222.178 128.5,220C 129.654,219.086 129.487,218.253 128,217.5C 127.014,218.171 125.847,218.171 124.5,217.5C 130.196,210.808 135.863,204.142 141.5,197.5 Z"/></g>
<g><path style="opacity:1" fill="#4e73c3" d="M 124.5,217.5 C 125.847,218.171 127.014,218.171 128,217.5C 129.487,218.253 129.654,219.086 128.5,220C 129.893,222.178 131.56,223.178 133.5,223C 132.742,224.364 133.242,225.531 135,226.5C 135.914,225.346 136.747,225.513 137.5,227C 136.742,228.364 137.242,229.531 139,230.5C 139.914,229.346 140.747,229.513 141.5,231C 140.742,232.364 141.242,233.531 143,234.5C 143.914,233.346 144.747,233.513 145.5,235C 144.742,236.364 145.242,237.531 147,238.5C 147.77,237.402 148.603,237.402 149.5,238.5C 144.85,245.145 139.85,251.478 134.5,257.5C 133.542,257.047 132.708,256.381 132,255.5C 131.086,256.654 130.253,256.487 129.5,255C 130.258,253.636 129.758,252.469 128,251.5C 127.086,252.654 126.253,252.487 125.5,251C 126.258,249.636 125.758,248.469 124,247.5C 123.086,248.654 122.253,248.487 121.5,247C 122.258,245.636 121.758,244.469 120,243.5C 119.086,244.654 118.253,244.487 117.5,243C 118.258,241.636 117.758,240.469 116,239.5C 115.667,239.833 115.333,240.167 115,240.5C 115.178,238.56 114.178,236.893 112,235.5C 111.23,236.598 110.397,236.598 109.5,235.5C 114.5,229.5 119.5,223.5 124.5,217.5 Z"/></g>
<g><path style="opacity:1" fill="#526dc4" d="M 109.5,235.5 C 110.397,236.598 111.23,236.598 112,235.5C 114.178,236.893 115.178,238.56 115,240.5C 115.333,240.167 115.667,239.833 116,239.5C 117.758,240.469 118.258,241.636 117.5,243C 118.253,244.487 119.086,244.654 120,243.5C 121.758,244.469 122.258,245.636 121.5,247C 122.253,248.487 123.086,248.654 124,247.5C 125.758,248.469 126.258,249.636 125.5,251C 126.253,252.487 127.086,252.654 128,251.5C 129.758,252.469 130.258,253.636 129.5,255C 130.253,256.487 131.086,256.654 132,255.5C 132.708,256.381 133.542,257.047 134.5,257.5C 129.516,264.48 124.183,271.146 118.5,277.5C 109.833,269.5 101.5,261.167 93.5,252.5C 98.6109,246.601 103.944,240.934 109.5,235.5 Z"/></g>
<g><path style="opacity:1" fill="#3990c1" d="M 200.5,134.5 C 285.167,219.5 369.833,304.5 454.5,389.5C 451.526,392.138 448.526,394.805 445.5,397.5C 445.414,396.504 445.748,395.671 446.5,395C 412,360.5 377.5,326 343,291.5C 341.961,292.71 340.794,293.71 339.5,294.5C 305.5,255.659 270.167,217.825 233.5,181C 228.225,176.554 222.559,172.721 216.5,169.5C 216.953,168.542 217.619,167.708 218.5,167C 209.579,157.575 200.246,148.742 190.5,140.5C 193.161,137.498 196.495,135.498 200.5,134.5 Z"/></g>
<g><path style="opacity:1" fill="#5965c4" d="M 79.5,265.5 C 88.5005,275.513 97.8338,284.513 107.5,292.5C 107.369,293.239 107.536,293.906 108,294.5C 114.009,299.677 119.842,305.011 125.5,310.5C 122.782,313.545 120.116,316.545 117.5,319.5C 117.02,316.414 115.187,313.747 112,311.5C 110.636,312.258 109.469,311.758 108.5,310C 108.833,309.667 109.167,309.333 109.5,309C 107.667,307.167 105.833,305.333 104,303.5C 102.636,304.258 101.469,303.758 100.5,302C 100.833,301.667 101.167,301.333 101.5,301C 99.6667,299.167 97.8333,297.333 96,295.5C 94.6361,296.258 93.4695,295.758 92.5,294C 92.8333,293.667 93.1667,293.333 93.5,293C 91.6667,291.167 89.8333,289.333 88,287.5C 86.6361,288.258 85.4695,287.758 84.5,286C 84.8333,285.667 85.1667,285.333 85.5,285C 83.6667,283.167 81.8333,281.333 80,279.5C 78.6361,280.258 77.4695,279.758 76.5,278C 76.8333,277.667 77.1667,277.333 77.5,277C 75.6667,275.167 73.8333,273.333 72,271.5C 70.6361,272.258 69.4695,271.758 68.5,270C 68.8333,269.667 69.1667,269.333 69.5,269C 67.6667,267.167 65.8333,265.333 64,263.5C 63.6667,263.833 63.3333,264.167 63,264.5C 61.7559,261.181 59.4225,258.181 56,255.5C 55.6667,255.833 55.3333,256.167 55,256.5C 54.2917,255.619 53.4584,254.953 52.5,254.5C 53.7927,252.704 55.2927,251.037 57,249.5C 63.6667,255.5 70.3333,261.5 77,267.5C 77.7083,266.619 78.5416,265.953 79.5,265.5 Z"/></g>
<g><path style="opacity:1" fill="#5668c5" d="M 93.5,252.5 C 101.5,261.167 109.833,269.5 118.5,277.5C 115.066,282.716 111.399,287.716 107.5,292.5C 97.8338,284.513 88.5005,275.513 79.5,265.5C 83.539,260.46 88.2056,256.127 93.5,252.5 Z"/></g>
<g><path style="opacity:1" fill="#5b60c5" d="M 52.5,254.5 C 53.4584,254.953 54.2917,255.619 55,256.5C 55.3333,256.167 55.6667,255.833 56,255.5C 59.4225,258.181 61.7559,261.181 63,264.5C 63.3333,264.167 63.6667,263.833 64,263.5C 65.8333,265.333 67.6667,267.167 69.5,269C 69.1667,269.333 68.8333,269.667 68.5,270C 69.4695,271.758 70.6361,272.258 72,271.5C 73.8333,273.333 75.6667,275.167 77.5,277C 77.1667,277.333 76.8333,277.667 76.5,278C 77.4695,279.758 78.6361,280.258 80,279.5C 81.8333,281.333 83.6667,283.167 85.5,285C 85.1667,285.333 84.8333,285.667 84.5,286C 85.4695,287.758 86.6361,288.258 88,287.5C 89.8333,289.333 91.6667,291.167 93.5,293C 93.1667,293.333 92.8333,293.667 92.5,294C 93.4695,295.758 94.6361,296.258 96,295.5C 97.8333,297.333 99.6667,299.167 101.5,301C 101.167,301.333 100.833,301.667 100.5,302C 101.469,303.758 102.636,304.258 104,303.5C 105.833,305.333 107.667,307.167 109.5,309C 109.167,309.333 108.833,309.667 108.5,310C 109.469,311.758 110.636,312.258 112,311.5C 115.187,313.747 117.02,316.414 117.5,319.5C 112.509,325.823 107.176,331.823 101.5,337.5C 100.737,336.732 99.7375,336.232 98.5,336C 102.272,334.611 102.272,333.611 98.5,333C 98.8333,332.667 99.1667,332.333 99.5,332C 98.5,331.667 97.5,331.333 96.5,331C 96.8333,330.667 97.1667,330.333 97.5,330C 96.5,329.667 95.5,329.333 94.5,329C 94.8333,328.667 95.1667,328.333 95.5,328C 94.5,327.667 93.5,327.333 92.5,327C 92.8333,326.667 93.1667,326.333 93.5,326C 92.5,325.667 91.5,325.333 90.5,325C 90.8333,324.667 91.1667,324.333 91.5,324C 90.5,323.667 89.5,323.333 88.5,323C 88.8333,322.667 89.1667,322.333 89.5,322C 88.5,321.667 87.5,321.333 86.5,321C 86.8333,320.667 87.1667,320.333 87.5,320C 86.5,319.667 85.5,319.333 84.5,319C 84.8333,318.667 85.1667,318.333 85.5,318C 84.5,317.667 83.5,317.333 82.5,317C 82.8333,316.667 83.1667,316.333 83.5,316C 82.5,315.667 81.5,315.333 80.5,315C 80.8333,314.667 81.1667,314.333 81.5,314C 80.5,313.667 79.5,313.333 78.5,313C 78.8333,312.667 79.1667,312.333 79.5,312C 78.5,311.667 77.5,311.333 76.5,311C 76.8333,310.667 77.1667,310.333 77.5,310C 76.5,309.667 75.5,309.333 74.5,309C 74.8333,308.667 75.1667,308.333 75.5,308C 74.5,307.667 73.5,307.333 72.5,307C 72.8333,306.667 73.1667,306.333 73.5,306C 72.5,305.667 71.5,305.333 70.5,305C 70.8333,304.667 71.1667,304.333 71.5,304C 70.5,303.667 69.5,303.333 68.5,303C 68.8333,302.667 69.1667,302.333 69.5,302C 68.5,301.667 67.5,301.333 66.5,301C 66.8333,300.667 67.1667,300.333 67.5,300C 66.5,299.667 65.5,299.333 64.5,299C 64.8333,298.667 65.1667,298.333 65.5,298C 64.5,297.667 63.5,297.333 62.5,297C 62.8333,296.667 63.1667,296.333 63.5,296C 61.8333,295 60.1667,294 58.5,293C 58.8333,292.667 59.1667,292.333 59.5,292C 58.5,291.667 57.5,291.333 56.5,291C 56.8333,290.667 57.1667,290.333 57.5,290C 56.5,289.667 55.5,289.333 54.5,289C 54.8333,288.667 55.1667,288.333 55.5,288C 54.5,287.667 53.5,287.333 52.5,287C 52.8333,286.667 53.1667,286.333 53.5,286C 52.5,285.667 51.5,285.333 50.5,285C 50.8333,284.667 51.1667,284.333 51.5,284C 50.5,283.667 49.5,283.333 48.5,283C 48.8333,282.667 49.1667,282.333 49.5,282C 48.5,281.667 47.5,281.333 46.5,281C 46.8333,280.667 47.1667,280.333 47.5,280C 46.5,279.667 45.5,279.333 44.5,279C 44.8333,278.667 45.1667,278.333 45.5,278C 44.5,277.667 43.5,277.333 42.5,277C 42.8333,276.667 43.1667,276.333 43.5,276C 40.8958,275.61 38.5625,274.776 36.5,273.5C 41.1225,266.602 46.4558,260.269 52.5,254.5 Z"/></g>
<g><path style="opacity:1" fill="#5f5ac6" d="M 36.5,273.5 C 38.5625,274.776 40.8958,275.61 43.5,276C 43.1667,276.333 42.8333,276.667 42.5,277C 43.5,277.333 44.5,277.667 45.5,278C 45.1667,278.333 44.8333,278.667 44.5,279C 45.5,279.333 46.5,279.667 47.5,280C 47.1667,280.333 46.8333,280.667 46.5,281C 47.5,281.333 48.5,281.667 49.5,282C 49.1667,282.333 48.8333,282.667 48.5,283C 49.5,283.333 50.5,283.667 51.5,284C 51.1667,284.333 50.8333,284.667 50.5,285C 51.5,285.333 52.5,285.667 53.5,286C 53.1667,286.333 52.8333,286.667 52.5,287C 53.5,287.333 54.5,287.667 55.5,288C 55.1667,288.333 54.8333,288.667 54.5,289C 55.5,289.333 56.5,289.667 57.5,290C 57.1667,290.333 56.8333,290.667 56.5,291C 57.5,291.333 58.5,291.667 59.5,292C 59.1667,292.333 58.8333,292.667 58.5,293C 60.1667,294 61.8333,295 63.5,296C 63.1667,296.333 62.8333,296.667 62.5,297C 63.5,297.333 64.5,297.667 65.5,298C 65.1667,298.333 64.8333,298.667 64.5,299C 65.5,299.333 66.5,299.667 67.5,300C 67.1667,300.333 66.8333,300.667 66.5,301C 67.5,301.333 68.5,301.667 69.5,302C 69.1667,302.333 68.8333,302.667 68.5,303C 69.5,303.333 70.5,303.667 71.5,304C 71.1667,304.333 70.8333,304.667 70.5,305C 71.5,305.333 72.5,305.667 73.5,306C 73.1667,306.333 72.8333,306.667 72.5,307C 73.5,307.333 74.5,307.667 75.5,308C 75.1667,308.333 74.8333,308.667 74.5,309C 75.5,309.333 76.5,309.667 77.5,310C 77.1667,310.333 76.8333,310.667 76.5,311C 77.5,311.333 78.5,311.667 79.5,312C 79.1667,312.333 78.8333,312.667 78.5,313C 79.5,313.333 80.5,313.667 81.5,314C 81.1667,314.333 80.8333,314.667 80.5,315C 81.5,315.333 82.5,315.667 83.5,316C 83.1667,316.333 82.8333,316.667 82.5,317C 83.5,317.333 84.5,317.667 85.5,318C 85.1667,318.333 84.8333,318.667 84.5,319C 85.5,319.333 86.5,319.667 87.5,320C 87.1667,320.333 86.8333,320.667 86.5,321C 87.5,321.333 88.5,321.667 89.5,322C 89.1667,322.333 88.8333,322.667 88.5,323C 89.5,323.333 90.5,323.667 91.5,324C 91.1667,324.333 90.8333,324.667 90.5,325C 91.5,325.333 92.5,325.667 93.5,326C 93.1667,326.333 92.8333,326.667 92.5,327C 93.5,327.333 94.5,327.667 95.5,328C 95.1667,328.333 94.8333,328.667 94.5,329C 95.5,329.333 96.5,329.667 97.5,330C 97.1667,330.333 96.8333,330.667 96.5,331C 97.5,331.333 98.5,331.667 99.5,332C 99.1667,332.333 98.8333,332.667 98.5,333C 102.272,333.611 102.272,334.611 98.5,336C 99.7375,336.232 100.737,336.732 101.5,337.5C 96.5092,343.823 91.1759,349.823 85.5,355.5C 85.2942,353.451 84.4609,353.117 83,354.5C 81.2215,352.983 81.7215,352.149 84.5,352C 81.9643,350.621 79.631,349.621 77.5,349C 78.5,348.667 79.5,348.333 80.5,348C 78.1771,346.183 75.8437,345.183 73.5,345C 74.5,344.667 75.5,344.333 76.5,344C 73.9643,342.621 71.631,341.621 69.5,341C 70.5,340.667 71.5,340.333 72.5,340C 70.1771,338.183 67.8437,337.183 65.5,337C 66.5,336.667 67.5,336.333 68.5,336C 65.9643,334.621 63.631,333.621 61.5,333C 62.5,332.667 63.5,332.333 64.5,332C 62.1771,330.183 59.8437,329.183 57.5,329C 58.5,328.667 59.5,328.333 60.5,328C 57.9643,326.621 55.631,325.621 53.5,325C 54.5,324.667 55.5,324.333 56.5,324C 54.1771,322.183 51.8437,321.183 49.5,321C 50.5,320.667 51.5,320.333 52.5,320C 49.9643,318.621 47.631,317.621 45.5,317C 46.5,316.667 47.5,316.333 48.5,316C 46.1771,314.183 43.8437,313.183 41.5,313C 42.5,312.667 43.5,312.333 44.5,312C 41.9643,310.621 39.631,309.621 37.5,309C 38.5,308.667 39.5,308.333 40.5,308C 38.1771,306.183 35.8437,305.183 33.5,305C 34.5,304.667 35.5,304.333 36.5,304C 33.9643,302.621 31.631,301.621 29.5,301C 30.5,300.667 31.5,300.333 32.5,300C 30.1771,298.183 27.8437,297.183 25.5,297C 26.5,296.667 27.5,296.333 28.5,296C 25.9643,294.621 23.631,293.621 21.5,293C 22.5,292.667 23.5,292.333 24.5,292C 23.2625,291.768 22.2625,291.268 21.5,290.5C 25.7965,284.261 30.7965,278.594 36.5,273.5 Z"/></g>
<g><path style="opacity:1" fill="#3c8cc1" d="M 445.5,397.5 C 440.821,402.178 435.821,406.511 430.5,410.5C 410.5,390.167 390.5,369.833 370.5,349.5C 373.021,347.299 375.521,344.966 378,342.5C 378.667,341.833 378.667,341.167 378,340.5C 364.921,325.321 352.087,309.987 339.5,294.5C 340.794,293.71 341.961,292.71 343,291.5C 377.5,326 412,360.5 446.5,395C 445.748,395.671 445.414,396.504 445.5,397.5 Z"/></g>
<g><path style="opacity:1" fill="#3498c0" d="M 466.5,378.5 C 466.047,377.542 465.381,376.708 464.5,376C 464.833,375.667 465.167,375.333 465.5,375C 445.965,355.632 426.632,336.132 407.5,316.5C 413.804,310.366 420.304,304.366 427,298.5C 446.538,319.702 465.704,341.202 484.5,363C 478.628,368.376 472.628,373.543 466.5,378.5 Z"/></g>
<g><path style="opacity:1" fill="#6652c7" d="M 71.5,371.5 C 70.7456,373.446 69.4122,374.279 67.5,374C 45.5,354.667 23.5,335.333 1.5,316C 0.482878,314.951 0.316211,313.784 1,312.5C 3.03961,310.63 4.87294,308.63 6.5,306.5C 8.45464,305.677 10.4546,305.51 12.5,306C 32.8333,326.333 53.1667,346.667 73.5,367C 71.9255,367.336 70.5922,368.169 69.5,369.5C 69.8555,370.522 70.5222,371.189 71.5,371.5 Z"/></g>
<g><path style="opacity:1" fill="#6355c7" d="M 21.5,290.5 C 22.2625,291.268 23.2625,291.768 24.5,292C 23.5,292.333 22.5,292.667 21.5,293C 23.631,293.621 25.9643,294.621 28.5,296C 27.5,296.333 26.5,296.667 25.5,297C 27.8437,297.183 30.1771,298.183 32.5,300C 31.5,300.333 30.5,300.667 29.5,301C 31.631,301.621 33.9643,302.621 36.5,304C 35.5,304.333 34.5,304.667 33.5,305C 35.8437,305.183 38.1771,306.183 40.5,308C 39.5,308.333 38.5,308.667 37.5,309C 39.631,309.621 41.9643,310.621 44.5,312C 43.5,312.333 42.5,312.667 41.5,313C 43.8437,313.183 46.1771,314.183 48.5,316C 47.5,316.333 46.5,316.667 45.5,317C 47.631,317.621 49.9643,318.621 52.5,320C 51.5,320.333 50.5,320.667 49.5,321C 51.8437,321.183 54.1771,322.183 56.5,324C 55.5,324.333 54.5,324.667 53.5,325C 55.631,325.621 57.9643,326.621 60.5,328C 59.5,328.333 58.5,328.667 57.5,329C 59.8437,329.183 62.1771,330.183 64.5,332C 63.5,332.333 62.5,332.667 61.5,333C 63.631,333.621 65.9643,334.621 68.5,336C 67.5,336.333 66.5,336.667 65.5,337C 67.8437,337.183 70.1771,338.183 72.5,340C 71.5,340.333 70.5,340.667 69.5,341C 71.631,341.621 73.9643,342.621 76.5,344C 75.5,344.333 74.5,344.667 73.5,345C 75.8437,345.183 78.1771,346.183 80.5,348C 79.5,348.333 78.5,348.667 77.5,349C 79.631,349.621 81.9643,350.621 84.5,352C 81.7215,352.149 81.2215,352.983 83,354.5C 84.4609,353.117 85.2942,353.451 85.5,355.5C 81.177,361.155 76.5103,366.488 71.5,371.5C 70.5222,371.189 69.8555,370.522 69.5,369.5C 70.5922,368.169 71.9255,367.336 73.5,367C 53.1667,346.667 32.8333,326.333 12.5,306C 10.4546,305.51 8.45464,305.677 6.5,306.5C 11.0456,300.744 16.0456,295.41 21.5,290.5 Z"/></g>
<g><path style="opacity:1" fill="#4087c1" d="M 370.5,349.5 C 390.5,369.833 410.5,390.167 430.5,410.5C 425.88,414.783 421.213,419.117 416.5,423.5C 397.011,402.509 377.677,381.342 358.5,360C 362.668,356.664 366.668,353.164 370.5,349.5 Z"/></g>
</svg>
